<svg width="32" height="32" viewBox="0 0 32 32" fill="none" xmlns="http://www.w3.org/2000/svg">
  <!-- Fondo circular -->
  <circle cx="16" cy="16" r="16" fill="#121212" />
  
  <!-- Círculo interior -->
  <circle cx="16" cy="16" r="14" fill="#1DB954" />
  
  <!-- Letra C estilizada -->
  <path d="M16,6 A10,10 0 0,0 6,16 A10,10 0 0,0 16,26 A10,10 0 0,0 26,16 L22,16 A6,6 0 0,1 16,22 A6,6 0 0,1 10,16 A6,6 0 0,1 16,10 A6,6 0 0,1 20,12 L22,9 A10,10 0 0,0 16,6 Z" fill="#121212" />
  
  <!-- Punto central -->
  <circle cx="16" cy="16" r="3" fill="#1DB954" />
</svg> 