<svg width="600" height="400" viewBox="0 0 600 400" fill="none" xmlns="http://www.w3.org/2000/svg">
  <!-- Fondo con gradiente -->
  <rect width="600" height="400" rx="20" fill="url(#paint0_radial)" />
  
  <!-- Círculos decorativos -->
  <circle cx="150" cy="200" r="120" fill="url(#paint1_linear)" fill-opacity="0.1" />
  <circle cx="450" cy="150" r="80" fill="url(#paint2_linear)" fill-opacity="0.1" />
  <circle cx="300" cy="300" r="60" fill="url(#paint3_linear)" fill-opacity="0.1" />
  
  <!-- Gráfico de barras -->
  <g transform="translate(100, 250)">
    <!-- Barras -->
    <rect x="0" y="-180" width="30" height="180" rx="4" fill="#1DB954" />
    <rect x="40" y="-150" width="30" height="150" rx="4" fill="#1DB954" opacity="0.9" />
    <rect x="80" y="-200" width="30" height="200" rx="4" fill="#1DB954" />
    <rect x="120" y="-120" width="30" height="120" rx="4" fill="#1DB954" opacity="0.8" />
    <rect x="160" y="-160" width="30" height="160" rx="4" fill="#1DB954" opacity="0.9" />
    <rect x="200" y="-190" width="30" height="190" rx="4" fill="#1DB954" />
    <rect x="240" y="-140" width="30" height="140" rx="4" fill="#1DB954" opacity="0.85" />
    <rect x="280" y="-170" width="30" height="170" rx="4" fill="#1DB954" opacity="0.95" />
    <rect x="320" y="-130" width="30" height="130" rx="4" fill="#1DB954" opacity="0.8" />
    <rect x="360" y="-110" width="30" height="110" rx="4" fill="#1DB954" opacity="0.75" />
    
    <!-- Línea base -->
    <line x1="0" y1="10" x2="400" y2="10" stroke="#FFFFFF" stroke-opacity="0.2" stroke-width="2" />
  </g>
  
  <!-- Notas musicales -->
  <g transform="translate(450, 80)">
    <path d="M20,2C14.5,2 10,6.5 10,12C10,17.5 14.5,22 20,22C25.5,22 30,17.5 30,12C30,6.5 25.5,2 20,2M20,0C26.6,0 32,5.4 32,12C32,18.6 26.6,24 20,24C13.4,24 8,18.6 8,12C8,5.4 13.4,0 20,0M22,7L22,14.8C21.4,14.3 20.7,14 20,14C18.3,14 17,15.3 17,17C17,18.7 18.3,20 20,20C21.7,20 23,18.7 23,17L23,7H22Z" fill="#1DB954" />
  </g>
  
  <g transform="translate(80, 100)">
    <path d="M20,2C14.5,2 10,6.5 10,12C10,17.5 14.5,22 20,22C25.5,22 30,17.5 30,12C30,6.5 25.5,2 20,2M20,0C26.6,0 32,5.4 32,12C32,18.6 26.6,24 20,24C13.4,24 8,18.6 8,12C8,5.4 13.4,0 20,0M22,7L22,14.8C21.4,14.3 20.7,14 20,14C18.3,14 17,15.3 17,17C17,18.7 18.3,20 20,20C21.7,20 23,18.7 23,17L23,7H22Z" fill="#1DB954" />
  </g>
  
  <!-- Ondas de sonido -->
  <g transform="translate(300, 100)">
    <path d="M0,20 Q5,5 10,20 Q15,35 20,20 Q25,5 30,20 Q35,35 40,20 Q45,5 50,20 Q55,35 60,20 Q65,5 70,20 Q75,35 80,20" stroke="#1DB954" stroke-width="3" fill="none" />
  </g>
  
  <!-- Círculo central con icono de reproducción -->
  <circle cx="300" cy="200" r="50" fill="#1DB954" />
  <path d="M285,175 L325,200 L285,225 Z" fill="white" />
  
  <!-- Definiciones de gradientes -->
  <defs>
    <radialGradient id="paint0_radial" cx="0" cy="0" r="1" gradientUnits="userSpaceOnUse" gradientTransform="translate(300 200) rotate(90) scale(300)">
      <stop stop-color="#282828" />
      <stop offset="1" stop-color="#121212" />
    </radialGradient>
    
    <linearGradient id="paint1_linear" x1="0" y1="0" x2="300" y2="300" gradientUnits="userSpaceOnUse">
      <stop stop-color="#1DB954" />
      <stop offset="1" stop-color="#1DB954" stop-opacity="0" />
    </linearGradient>
    
    <linearGradient id="paint2_linear" x1="400" y1="100" x2="500" y2="200" gradientUnits="userSpaceOnUse">
      <stop stop-color="#1DB954" />
      <stop offset="1" stop-color="#1DB954" stop-opacity="0" />
    </linearGradient>
    
    <linearGradient id="paint3_linear" x1="250" y1="250" x2="350" y2="350" gradientUnits="userSpaceOnUse">
      <stop stop-color="#1DB954" />
      <stop offset="1" stop-color="#1DB954" stop-opacity="0" />
    </linearGradient>
  </defs>
</svg> 